<svg xmlns="http://www.w3.org/2000/svg" version="1.1" xmlns:xlink="http://www.w3.org/1999/xlink" width="524" height="524" x="0" y="0" viewBox="0 0 64 64" style="enable-background:new 0 0 512 512" xml:space="preserve" class=""><g><g data-name="6. Study"><path fill="#ee7231" d="M40 33a1 1 0 0 1-.85-.47l-5-8a1 1 0 0 1 1.7-1.06l5 8A1 1 0 0 1 40 33z" opacity="1" data-original="#ee7231"></path><path fill="#0c3798" d="M27 64a2 2 0 0 1-1.91-1.41L21.52 51h-9L8.91 62.59a2 2 0 0 1-3.82-1.18l4-13A2 2 0 0 1 11 47h12a2 2 0 0 1 1.91 1.41l4 13A2 2 0 0 1 27 64z" opacity="1" data-original="#0c3798"></path><path fill="#2f79f0" d="M31 46v5H6.71a3 3 0 0 1-3-2.69L1.09 22.9C1 21.86 1 21 1 21.09a2.09 2.09 0 0 1 4.18-.19L7.53 46z" opacity="1" data-original="#2f79f0"></path><g fill="#88b8f9"><path d="M34 43c0 .22.1-.74-2 18.33a3 3 0 0 1-6-.66L27.65 46H21a3 3 0 0 1 0-6h10a3 3 0 0 1 3 3z" fill="#88b8f9" opacity="1" data-original="#88b8f9" class=""></path><circle cx="27" cy="14" r="7" fill="#88b8f9" opacity="1" data-original="#88b8f9" class=""></circle><path d="M17.78 20a6.43 6.43 0 0 1 6.39 7.17L22 46h-9.77a5.24 5.24 0 0 1-5-6.74l4.41-14.68A6.42 6.42 0 0 1 17.78 20z" fill="#88b8f9" opacity="1" data-original="#88b8f9" class=""></path><path d="M41.5 31a2.5 2.5 0 0 1-2.5 2.5H29a2.43 2.43 0 0 1-1.53-.5l-9.31-6.6a3 3 0 1 1 3.68-4.74l8.07 6.87H39A2.5 2.5 0 0 1 41.5 31z" fill="#88b8f9" opacity="1" data-original="#88b8f9" class=""></path></g><rect width="33" height="5" x="30" y="33" fill="#2f79f0" rx="1" opacity="1" data-original="#2f79f0"></rect><path fill="#0c3798" d="M54 38h6v23h-6z" opacity="1" data-original="#0c3798"></path><rect width="25" height="3" x="36" y="61" fill="#2f79f0" rx="1" opacity="1" data-original="#2f79f0"></rect><circle cx="54" cy="8" r="8" fill="#ee7231" opacity="1" data-original="#ee7231"></circle><path fill="#fffeff" d="M51 12a1 1 0 0 1-.71-1.71L53 7.59V3a1 1 0 0 1 2 0v5a1 1 0 0 1-.29.71l-3 3A1 1 0 0 1 51 12z" opacity="1" data-original="#fffeff"></path><path fill="#88b8f9" d="M48 30h13v3H48z" opacity="1" data-original="#88b8f9" class=""></path><path fill="#b7dbf9" d="M48 27h13v3H48z" opacity="1" data-original="#b7dbf9"></path><path fill="#88b8f9" d="M48 24h13v3H48z" opacity="1" data-original="#88b8f9" class=""></path><path fill="#f8cf6d" d="M60 64H48a3 3 0 0 1-3-3V51a9 9 0 0 1 18 0v10a3 3 0 0 1-3 3z" opacity="1" data-original="#f8cf6d"></path><rect width="12" height="6" x="48" y="55" fill="#ee7231" rx="1" opacity="1" data-original="#ee7231"></rect><path fill="#ee7231" d="M58 52a1 1 0 0 1-1-1v-.5a3.5 3.5 0 0 0-7 0v.5a1 1 0 0 1-2 0v-.5a5.5 5.5 0 0 1 11 0v.5a1 1 0 0 1-1 1z" opacity="1" data-original="#ee7231"></path></g></g></svg>