<svg xmlns="http://www.w3.org/2000/svg" version="1.1" xmlns:xlink="http://www.w3.org/1999/xlink" width="512" height="512" x="0" y="0" viewBox="0 0 512.001 512" style="enable-background:new 0 0 512 512" xml:space="preserve" class=""><g><path fill="#96c7f0" d="m421.266 158.625 38.398-38.398-67.902-67.875-38.403 38.402A190.555 190.555 0 0 0 304 70.289V16h-96v54.29a190.615 190.615 0 0 0-49.375 20.448l-38.402-38.402-67.871 67.906 38.398 38.399A190.68 190.68 0 0 0 70.29 208H16v96h54.29a190.56 190.56 0 0 0 20.448 49.375l-38.402 38.402 67.887 67.887 38.402-38.398A190.661 190.661 0 0 0 208 441.71V496h96v-54.29a190.605 190.605 0 0 0 49.375-20.444l38.402 38.398 67.887-67.887-38.402-38.402A190.615 190.615 0 0 0 441.71 304H496v-96h-54.29a190.661 190.661 0 0 0-20.444-49.375zM256 352c-53.02 0-96-42.98-96-96s42.98-96 96-96 96 42.98 96 96-42.98 96-96 96zm0 0" opacity="1" data-original="#bddbff" class=""></path><g fill="#3d9ae2"><path d="M496 192h-42.29a205.781 205.781 0 0 0-12.64-30.559l29.89-29.886c6.247-6.25 6.247-16.38 0-22.625l-67.89-67.887c-6.246-6.246-16.375-6.246-22.62 0L350.558 70.93A206.62 206.62 0 0 0 320 58.29V16c0-8.836-7.164-16-16-16h-96c-8.836 0-16 7.164-16 16v42.29a203.115 203.115 0 0 0-30.559 12.655l-29.89-29.906c-6.246-6.246-16.375-6.246-22.621 0l-67.89 67.89c-6.247 6.247-6.247 16.376 0 22.622l29.89 29.89A205.781 205.781 0 0 0 58.29 192H16c-8.836 0-16 7.164-16 16v96c0 8.836 7.164 16 16 16h42.29a205.826 205.826 0 0 0 12.64 30.563l-29.89 29.886c-6.247 6.246-6.247 16.375 0 22.625l67.89 67.887c6.246 6.246 16.375 6.246 22.62 0l29.891-29.906A202.877 202.877 0 0 0 192 453.71V496c0 8.836 7.164 16 16 16h96c8.836 0 16-7.164 16-16v-42.29a205.826 205.826 0 0 0 30.563-12.64l29.886 29.89c6.246 6.247 16.375 6.247 22.625 0l67.887-67.89c6.246-6.246 6.246-16.375 0-22.62l-29.887-29.891A206.62 206.62 0 0 0 453.714 320H496c8.836 0 16-7.164 16-16v-96c0-8.836-7.164-16-16-16zm-16 96h-38.305a16.005 16.005 0 0 0-15.488 12 174.692 174.692 0 0 1-18.719 45.234 15.993 15.993 0 0 0 2.465 19.454l27.055 27.074-45.246 45.246-27.074-27.055a16.1 16.1 0 0 0-19.458-2.465A174.62 174.62 0 0 1 300 426.211a16.002 16.002 0 0 0-12 15.488V480h-64v-38.3a15.998 15.998 0 0 0-12-15.49 174.997 174.997 0 0 1-45.25-18.722 15.999 15.999 0 0 0-19.437 2.465l-27.075 27.055-45.261-45.246 27.07-27.075a15.999 15.999 0 0 0 2.465-19.453A174.702 174.702 0 0 1 85.789 300a16.002 16.002 0 0 0-15.488-12H32v-64h38.3a15.994 15.994 0 0 0 15.49-12 174.62 174.62 0 0 1 18.722-45.23 16.004 16.004 0 0 0-2.465-19.458l-27.07-27.074 45.261-45.246 27.075 27.055a15.998 15.998 0 0 0 19.437 2.465A174.987 174.987 0 0 1 212 85.793a16.005 16.005 0 0 0 12-15.488V32h64v38.305a16 16 0 0 0 12 15.488 174.61 174.61 0 0 1 45.23 18.719 15.999 15.999 0 0 0 19.458-2.465l27.074-27.055 45.246 45.246-27.055 27.075a15.999 15.999 0 0 0-2.465 19.457A174.61 174.61 0 0 1 426.207 212a16.005 16.005 0 0 0 15.488 12H480zm0 0" fill="#0d7ded" opacity="1" data-original="#3d9ae2" class=""></path><path d="M256 144c-61.855 0-112 50.145-112 112s50.145 112 112 112 112-50.145 112-112c-.07-61.824-50.172-111.93-112-112zm0 192c-44.184 0-80-35.816-80-80s35.816-80 80-80 80 35.816 80 80c-.05 44.16-35.84 79.95-80 80zm0 0" fill="#0d7ded" opacity="1" data-original="#3d9ae2" class=""></path></g></g></svg>